OpenSim_Sub07_CSStiffKnee_GRF.mot
version=1
nRows=28
nColumns=19
inDegrees=no
endheader
time	lFx	lFy	lFz	lCOPx	lCOPy	lCOPz	rFx	rFy	rFz	rCOPx	rCOPy	rCOPz	lMx	lMy	lMz	rMx	rMy	rMz
16.83000000	-22.49488453	764.45231509	61.25936550	0.61256037	0	-0.62766516	-6.52382129	30.50077766	-3.46728089	0.17232743	0	-0.13750666	0	2.14518114	0	0	0.13028022	0
16.84000000	-20.79367206	763.64571751	61.04206538	0.60903408	0	-0.62729021	-7.94129677	20.84959230	-2.65658207	0.06315847	0	-0.04516371	0	2.37752607	0	0	0.08432358	0
16.85000000	-18.89857012	758.76209925	60.37478640	0.60554523	0	-0.62693559	-6.71094411	11.91121159	-1.80143223	0.00550352	0	-0.00017005	0	2.60737575	0	0	0.03366871	0.00000000
16.86000000	-16.95290265	751.65391270	59.63807829	0.60211935	0	-0.62660489	-3.61098292	4.74465355	-0.92462752	-0.01221661	0	0.01177346	0	2.78352185	0	0	0.00492219	0.00000000
16.87000000	-15.30533641	743.61850287	59.10222410	0.59863750	0	-0.62635002	-1.17107670	0.86925594	-0.27172037	-0.01130638	0	0.00954235	0	2.89972273	0	0	-0.00490849	0.00000000
16.88000000	-13.87175572	735.24696040	58.87001582	0.59494425	0	-0.62619532	-0.03392077	-0.45224121	-0.18534982	-0.00589894	0	0.00459278	0	2.90483556	0	0	-0.00525770	0.00000000
16.89000000	-12.34950309	726.72879536	58.84358618	0.59110095	0	-0.62613539	0.28053852	-0.63959379	-0.20150595	-0.00177686	0	0.00118842	0	2.73951040	0	0	-0.00294685	0.00000000
16.90000000	-10.62850193	717.91362293	58.73445316	0.58745058	0	-0.62612464	0.25220542	-0.45646086	-0.12823082	0.00012230	0	-0.00025253	0	2.48175568	0	0	-0.00099062	0.00000000
16.91000000	-9.00195964	708.61114726	58.27971139	0.58402833	0	-0.62611351	0.13942780	-0.24050250	-0.10858595	0.00056726	0	-0.00051713	0	2.22395760	0	0	-0.00002197	-0.00000000
16.92000000	-7.51122764	699.04918835	57.32884077	0.58070405	0	-0.62611244	0.06768640	-0.07517243	-0.11046808	0.00042535	0	-0.00035056	0	2.07186145	0	0	0.00024352	0.00000000
16.93000000	-6.04383427	690.10929931	56.07819682	0.57731709	0	-0.62614330	0.08760388	0.02485163	-0.07972587	0.00019352	0	-0.00014642	0	2.03482556	0	0	0.00020224	0.00000000
16.94000000	-4.51039152	682.84207225	54.82920983	0.57362243	0	-0.62620017	0.15172183	0.10545927	-0.08863689	0.00004394	0	-0.00002566	0	2.08096300	0	0	0.00009892	0.00000000
16.95000000	-3.04936239	677.97826551	53.89812345	0.56956690	0	-0.62628273	0.17426656	0.19639174	-0.11918734	-0.00001559	0	0.00001791	0	2.09916712	0	0	0.00002646	-0.00000000
16.96000000	-1.68446923	675.59834153	53.43434030	0.56515109	0	-0.62637576	0.11119247	0.35840184	-0.16382109	-0.00002417	0	0.00002122	0	2.04065919	0	0	-0.00000475	-0.00000000
16.97000000	-0.32538258	675.45814866	53.39348181	0.56048915	0	-0.62649604	0.02133072	0.66173122	-0.19748633	-0.00001541	0	0.00001241	0	1.91361985	0	0	-0.00001081	-0.00000000
16.98000000	1.09097343	677.11378242	53.57432593	0.55558941	0	-0.62664276	-0.02876469	0.98814747	-0.17842510	-0.00000610	0	0.00000444	0	1.77654168	0	0	-0.00000745	0.00000000
16.99000000	2.47016191	680.14799030	53.83974486	0.55053221	0	-0.62676946	-0.04799625	1.18647741	-0.14286784	-0.00000089	0	0.00000033	0	1.69643674	0	0	-0.00000310	0.00000000
17	3.80625838	684.21907437	54.07953163	0.54538614	0	-0.62685281	-0.06838456	1.23409952	-0.12302563	0.00000093	0	-0.00000092	0	1.70453331	0	0	-0.00000041	0.00000000
17.01000000	5.27771544	688.90594993	54.22315170	0.54009820	0	-0.62692580	-0.10264067	1.21233296	-0.13130076	0.00000124	0	-0.00000097	0	1.78200166	0	0	0.00000062	0.00000000
17.02000000	7.00261077	693.95690424	54.38134862	0.53456906	0	-0.62698594	-0.11407429	1.20558842	-0.08426179	0.00000139	0	-0.00000091	0	1.84471517	0	0	0.00000056	-0.00000000
17.03000000	8.87082083	699.30194447	54.57422375	0.52879260	0	-0.62699898	-0.09191561	1.14256475	-0.02391428	0.00000178	0	-0.00000108	0	1.89882931	0	0	-0.00000036	-0.00000000
17.04000000	10.77172948	704.82617410	54.73357224	0.52273102	0	-0.62694869	-0.08048592	1.01735085	-0.07487742	0.00000165	0	-0.00000106	0	1.98871848	0	0	-0.00000225	-0.00000000
17.05000000	12.80802349	710.22030048	54.77336424	0.51635464	0	-0.62683754	-0.07692439	0.84766346	-0.17462909	-0.00000108	0	0.00000038	0	2.14899736	0	0	-0.00000480	0.00000000
17.06000000	15.00446133	715.10244266	54.69588010	0.50971375	0	-0.62672216	-0.05735539	0.68721567	-0.23252941	-0.00000944	0	0.00000514	0	2.32806803	0	0	-0.00000582	-0.00000000
17.07000000	17.19653981	719.38894046	54.55694752	0.50315088	0	-0.62665884	-0.05183170	0.65535629	-0.20206641	-0.00002486	0	0.00001437	0	2.52113147	0	0	0.00000048	0.00000000
17.08000000	19.14228002	723.04790879	54.46176041	0.49683176	0	-0.62663084	-0.03540791	0.75872172	-0.11256339	-0.00004036	0	0.00002455	0	2.73214578	0	0	0.00002349	-0.00000000
17.09000000	20.93430604	725.76563242	54.49290519	0.49072196	0	-0.62659469	-0.03421118	0.93829808	-0.09203575	-0.00002925	0	0.00002066	0	2.89756059	0	0	0.00007001	-0.00000000
17.10000000	22.80479750	727.42414886	54.65349198	0.48474924	0	-0.62653626	-0.07175212	1.17030907	-0.12521000	0.00006358	0	-0.00002987	0	2.96582576	0	0	0.00012504	0.00000000
